<svg width="1752" height="1080" viewBox="0 0 1752 1080" fill="none" xmlns="http://www.w3.org/2000/svg">
<path d="M16.9854 2C393.985 544.5 -319.515 702.5 195.985 1084.5" stroke="white" stroke-opacity="0.25" stroke-dasharray="30 30"/>
<path d="M488 1.5C124.695 755.5 183 807 488 1081.5" stroke="white" stroke-opacity="0.5" stroke-dasharray="30 30"/>
<path d="M459.119 570.783C459.28 560.926 459.606 551.203 460.107 541.62L460.606 541.646C461.121 531.784 461.821 522.071 462.713 512.512L462.215 512.465C463.134 502.622 464.258 492.941 465.597 483.43L466.092 483.499C467.466 473.737 469.066 464.154 470.903 454.756L470.413 454.66C472.31 444.953 474.461 435.443 476.875 426.138L477.359 426.264C479.835 416.725 482.588 407.403 485.632 398.305L485.158 398.146C488.286 388.797 491.721 379.683 495.476 370.813L495.937 371.008C499.763 361.971 503.922 353.189 508.429 344.671L507.987 344.438C512.569 335.777 517.51 327.388 522.826 319.281L523.244 319.555C528.582 311.414 534.298 303.557 540.408 295.995L540.019 295.681C546.113 288.138 552.599 280.887 559.49 273.939L559.845 274.291C566.632 267.448 573.814 260.898 581.406 254.652L581.089 254.266C588.496 248.171 596.293 242.365 604.493 236.855L604.772 237.27C612.709 231.937 621.026 226.881 629.734 222.112L629.494 221.674C637.838 217.104 646.541 212.796 655.613 208.759L655.816 209.215C664.507 205.348 673.536 201.728 682.916 198.362L682.747 197.891C691.712 194.674 700.996 191.688 710.606 188.939L710.744 189.42C719.851 186.815 729.253 184.424 738.956 182.25L738.846 181.762C748.114 179.685 757.655 177.807 767.477 176.132L767.561 176.625C776.927 175.027 786.548 173.614 796.431 172.388L796.369 171.892C805.815 170.721 815.498 169.72 825.424 168.895L825.466 169.393C834.952 168.604 844.66 167.974 854.595 167.506L854.571 167.006C864.093 166.558 873.823 166.258 883.763 166.11L883.771 166.609C888.643 166.537 893.565 166.5 898.539 166.5C903.553 166.5 908.496 166.532 913.371 166.596L913.377 166.096C923.399 166.228 933.129 166.495 942.579 166.896L942.557 167.395C952.587 167.821 962.298 168.397 971.704 169.123L971.742 168.624C981.774 169.398 991.459 170.342 1000.81 171.454L1000.75 171.951C1010.74 173.139 1020.35 174.52 1029.59 176.09L1029.67 175.597C1039.61 177.285 1049.13 179.192 1058.24 181.316L1058.13 181.803C1068.01 184.108 1077.42 186.667 1086.39 189.477L1086.54 189C1096.17 192.019 1105.28 195.328 1113.92 198.923L1113.73 199.384C1123.05 203.268 1131.82 207.485 1140.06 212.031L1140.3 211.593C1149.08 216.436 1157.27 221.651 1164.91 227.232L1164.62 227.636C1172.62 233.477 1180.03 239.721 1186.9 246.358L1187.25 245.998C1194.31 252.82 1200.8 260.058 1206.79 267.703L1206.4 268.012C1212.36 275.622 1217.82 283.637 1222.84 292.051L1223.27 291.795C1228.19 300.037 1232.68 308.66 1236.82 317.655L1236.36 317.864C1240.34 326.532 1243.98 335.548 1247.34 344.906L1247.81 344.737C1251.02 353.705 1253.97 362.985 1256.7 372.571L1256.22 372.708C1258.82 381.846 1261.23 391.264 1263.47 400.958L1263.96 400.845C1266.11 410.141 1268.11 419.689 1270 429.483L1269.51 429.578C1271.32 438.923 1273.02 448.494 1274.64 458.287L1275.14 458.205C1276.7 467.629 1278.2 477.258 1279.66 487.089L1279.17 487.162C1280.57 496.63 1281.94 506.284 1283.29 516.123L1283.78 516.055C1285.08 525.525 1286.37 535.165 1287.67 544.973L1287.17 545.038C1287.81 549.85 1288.44 554.703 1289.08 559.595C1289.75 564.63 1290.31 569.671 1290.79 574.713L1291.29 574.667C1292.24 584.812 1292.81 594.963 1292.96 605.08L1292.46 605.087C1292.61 615.27 1292.34 625.417 1291.62 635.489L1292.12 635.525C1291.38 645.694 1290.19 655.787 1288.5 665.763L1288.01 665.68C1286.31 675.701 1284.12 685.604 1281.39 695.346L1281.87 695.481C1279.14 705.257 1275.86 714.872 1272.02 724.286L1271.56 724.097C1267.75 733.438 1263.37 742.579 1258.41 751.48L1258.84 751.723C1253.94 760.503 1248.47 769.05 1242.39 777.324L1241.98 777.028C1236.07 785.065 1229.59 792.845 1222.5 800.332L1222.86 800.676C1216.02 807.901 1208.62 814.854 1200.63 821.501L1200.32 821.117C1192.72 827.438 1184.59 833.483 1175.91 839.224L1176.18 839.641C1167.96 845.077 1159.24 850.241 1150.01 855.109L1149.78 854.667C1141.05 859.27 1131.86 863.609 1122.19 867.662L1122.38 868.123C1113.33 871.918 1103.85 875.463 1093.95 878.742L1093.8 878.267C1084.44 881.364 1074.71 884.224 1064.57 886.832L1064.7 887.316C1055.13 889.779 1045.21 892.017 1034.92 894.02L1034.83 893.529C1025.17 895.409 1015.2 897.082 1004.9 898.536L1004.97 899.032C995.189 900.412 985.119 901.596 974.749 902.577L974.702 902.079C964.86 903.009 954.748 903.755 944.358 904.311L944.385 904.81C934.492 905.339 924.348 905.694 913.95 905.87L913.941 905.371C908.868 905.457 903.734 905.5 898.539 905.5C893.255 905.5 888.034 905.471 882.876 905.413L882.871 905.913C872.296 905.795 861.986 905.555 851.932 905.196L851.95 904.696C841.371 904.318 831.077 903.808 821.06 903.166L821.028 903.665C810.448 902.987 800.177 902.163 790.206 901.195L790.254 900.697C779.706 899.673 769.494 898.487 759.608 897.142L759.541 897.638C748.976 896.201 738.781 894.582 728.944 892.783L729.034 892.292C718.527 890.371 708.428 888.246 698.721 885.92L698.605 886.406C688.256 883.926 678.352 881.217 668.872 878.285L669.02 877.807C658.78 874.639 649.038 871.209 639.767 867.522L639.582 867.987C629.664 864.043 620.284 859.805 611.412 855.279L611.639 854.834C602.178 850.008 593.296 844.855 584.955 839.382L584.681 839.8C575.821 833.987 567.57 827.813 559.883 821.287L560.207 820.906C552.221 814.126 544.845 806.966 538.03 799.436L537.659 799.772C530.691 792.073 524.308 783.987 518.455 775.526L518.866 775.242C513.031 766.806 507.724 757.995 502.893 748.819L502.451 749.052C497.7 740.03 493.409 730.657 489.527 720.943L489.991 720.757C486.233 711.353 482.858 701.627 479.821 691.588L479.343 691.733C476.413 682.05 473.798 672.077 471.457 661.824L471.944 661.713C469.695 651.864 467.698 641.754 465.918 631.391L465.425 631.476C463.71 621.496 462.196 611.283 460.849 600.843L461.345 600.779C460.692 595.712 460.078 590.592 459.5 585.419C459.5 580.511 459.539 575.635 459.618 570.791L459.119 570.783Z" stroke="white" stroke-dasharray="30 30"/>
<path d="M1735.01 -0.5C1358.01 542 2071.51 700 1556.01 1082" stroke="white" stroke-opacity="0.25" stroke-dasharray="30 30"/>
<path d="M1264 -1C1627.3 753 1569 804.5 1264 1079" stroke="white" stroke-opacity="0.5" stroke-dasharray="30 30"/>
</svg>
