<svg width="834" height="740" viewBox="0 0 834 740" fill="none" xmlns="http://www.w3.org/2000/svg">
<path d="M0.118545 404.783C0.279644 394.926 0.606306 385.203 1.10687 375.62L1.60619 375.646C2.12127 365.784 2.82059 356.071 3.71319 346.512L3.21536 346.465C4.13445 336.622 5.25837 326.941 6.59703 317.43L7.09215 317.499C8.46605 307.737 10.0662 298.154 11.9034 288.756L11.4127 288.66C13.3103 278.953 15.4606 269.443 17.8754 260.138L18.3594 260.264C20.8346 250.725 23.5879 241.403 26.6319 232.305L26.1578 232.146C29.2858 222.797 32.7207 213.683 36.4763 204.813L36.9367 205.008C40.7629 195.971 44.9221 187.189 49.4288 178.671L48.9869 178.438C53.569 169.777 58.5102 161.388 63.8258 153.281L64.2439 153.555C69.5821 145.414 75.2983 137.557 81.4079 129.995L81.019 129.681C87.1132 122.138 93.5985 114.887 100.49 107.939L100.845 108.291C107.632 101.448 114.815 94.8984 122.407 88.652L122.089 88.2659C129.496 82.1714 137.293 76.365 145.493 70.8553L145.772 71.2704C153.71 65.9367 162.026 60.8813 170.734 56.1121L170.494 55.6736C178.838 51.1035 187.541 46.7962 196.613 42.7587L196.817 43.2155C205.507 39.3479 214.536 35.7279 223.916 32.3617L223.747 31.8911C232.712 28.6735 241.996 25.6877 251.606 22.9391L251.744 23.4198C260.851 20.8152 270.253 18.4235 279.956 16.2496L279.846 15.7617C289.114 13.6853 298.655 11.8075 308.477 10.1321L308.561 10.625C317.927 9.02743 327.548 7.61405 337.431 6.38832L337.369 5.89212C346.815 4.7206 356.498 3.72044 366.424 2.89463L366.466 3.39291C375.952 2.60369 385.66 1.9738 395.595 1.50588L395.571 1.00644C405.093 0.55795 414.823 0.258203 424.763 0.109507L424.771 0.609451C429.643 0.536575 434.565 0.5 439.539 0.5C444.553 0.5 449.496 0.532125 454.371 0.596232L454.377 0.0962754C464.399 0.228069 474.129 0.494979 483.579 0.895791L483.557 1.39534C493.587 1.82074 503.298 2.39704 512.704 3.12275L512.742 2.62423C522.774 3.39829 532.459 4.34227 541.809 5.45442L541.75 5.95092C551.74 7.1392 561.348 8.51951 570.59 10.0896L570.674 9.59669C580.611 11.2848 590.126 13.1923 599.239 15.3164L599.126 15.8034C609.012 18.1076 618.425 20.6668 627.39 23.4775L627.54 23.0003C637.169 26.0192 646.284 29.3281 654.918 32.9228L654.726 33.3844C664.054 37.2681 672.817 41.4855 681.058 46.0309L681.299 45.5931C690.078 50.4357 698.266 55.6508 705.913 61.2318L705.618 61.6357C713.621 67.4774 721.029 73.7206 727.899 80.358L728.247 79.9984C735.308 86.8203 741.802 94.058 747.792 101.703L747.398 102.012C753.36 109.622 758.82 117.637 763.841 126.051L764.27 125.795C769.189 134.037 773.685 142.66 777.816 151.655L777.361 151.864C781.342 160.532 784.984 169.548 788.338 178.906L788.808 178.737C792.022 187.705 794.972 196.985 797.702 206.571L797.222 206.708C799.824 215.846 802.228 225.265 804.471 234.958L804.958 234.845C807.109 244.141 809.113 253.689 811.004 263.483L810.513 263.578C812.316 272.923 814.017 282.494 815.645 292.287L816.138 292.205C817.704 301.629 819.203 311.259 820.661 321.089L820.166 321.162C821.57 330.63 822.935 340.284 824.287 350.123L824.782 350.055C826.083 359.525 827.37 369.165 828.666 378.973L828.17 379.038C828.805 383.85 829.443 388.703 830.085 393.595C830.746 398.63 831.315 403.671 831.788 408.713L832.286 408.667C833.24 418.812 833.807 428.963 833.959 439.08L833.459 439.087C833.611 449.27 833.341 459.417 832.617 469.489L833.116 469.525C832.384 479.694 831.191 489.787 829.503 499.763L829.01 499.68C827.315 509.701 825.119 519.604 822.391 529.346L822.873 529.481C820.135 539.257 816.862 548.872 813.021 558.286L812.558 558.097C808.746 567.438 804.373 576.579 799.406 585.48L799.843 585.723C794.944 594.503 789.468 603.05 783.385 611.324L782.982 611.027C777.073 619.065 770.589 626.845 763.501 634.332L763.864 634.676C757.024 641.901 749.623 648.854 741.635 655.501L741.315 655.117C733.719 661.438 725.591 667.483 716.909 673.224L717.185 673.641C708.963 679.077 700.245 684.241 691.013 689.109L690.78 688.667C682.048 693.27 672.856 697.609 663.185 701.662L663.379 702.123C654.325 705.918 644.855 709.463 634.954 712.742L634.797 712.267C625.444 715.364 615.707 718.224 605.573 720.832L605.698 721.316C596.128 723.779 586.206 726.017 575.923 728.02L575.827 727.529C566.172 729.409 556.197 731.082 545.895 732.536L545.965 733.032C536.189 734.412 526.119 735.596 515.749 736.577L515.702 736.079C505.86 737.009 495.748 737.755 485.358 738.311L485.385 738.81C475.492 739.339 465.348 739.694 454.95 739.87L454.941 739.371C449.868 739.457 444.734 739.5 439.539 739.5C434.255 739.5 429.034 739.471 423.876 739.413L423.871 739.913C413.296 739.795 402.986 739.555 392.932 739.196L392.95 738.696C382.371 738.318 372.077 737.808 362.06 737.166L362.028 737.665C351.448 736.987 341.177 736.163 331.206 735.195L331.254 734.697C320.706 733.673 310.494 732.487 300.608 731.142L300.541 731.638C289.976 730.201 279.781 728.582 269.944 726.783L270.034 726.292C259.527 724.371 249.428 722.246 239.721 719.92L239.605 720.406C229.256 717.926 219.352 715.217 209.872 712.285L210.02 711.807C199.78 708.639 190.038 705.209 180.767 701.522L180.582 701.987C170.664 698.043 161.284 693.805 152.412 689.279L152.639 688.834C143.178 684.008 134.296 678.855 125.955 673.382L125.681 673.8C116.821 667.987 108.57 661.813 100.883 655.287L101.207 654.906C93.2208 648.126 85.8453 640.966 79.0301 633.436L78.6594 633.772C71.6914 626.073 65.3077 617.987 59.4551 609.526L59.8663 609.242C54.0312 600.806 48.7244 591.995 43.8931 582.819L43.4507 583.052C38.7002 574.03 34.4091 564.657 30.5271 554.943L30.9914 554.757C27.233 545.353 23.8582 535.627 20.8214 525.588L20.3428 525.733C17.4133 516.05 14.7983 506.077 12.4568 495.824L12.9443 495.713C10.6951 485.864 8.69835 475.754 6.91769 465.391L6.42491 465.476C4.71007 455.496 3.19567 445.283 1.84927 434.843L2.34516 434.779C1.69178 429.712 1.07797 424.592 0.5 419.419C0.500148 414.511 0.539311 409.635 0.618478 404.791L0.118545 404.783Z" stroke="white" stroke-dasharray="30 30"/>
</svg>
