<svg width="29" height="23" viewBox="0 0 29 23" fill="none" xmlns="http://www.w3.org/2000/svg">
<path d="M14.4999 17.9687C11.0629 17.9687 8.28074 15.3313 8.02472 11.9892L3.27145 8.34742C2.6466 9.12456 2.07158 9.94617 1.60758 10.8446C1.50393 11.0479 1.44992 11.2725 1.44992 11.5002C1.44992 11.728 1.50393 11.9526 1.60758 12.1559C4.06487 16.909 8.92961 20.1249 14.4999 20.1249C15.7192 20.1249 16.8955 19.9452 18.0292 19.655L15.678 17.8514C15.2897 17.9258 14.8953 17.965 14.4999 17.9687ZM28.7198 20.5786L23.7105 16.7405C25.2322 15.4692 26.4836 13.9106 27.3921 12.1554C27.4958 11.9521 27.5498 11.7275 27.5498 11.4998C27.5498 11.272 27.4958 11.0474 27.3921 10.8441C24.9348 6.09101 20.0701 2.87509 14.4999 2.87509C12.167 2.87789 9.87193 3.46013 7.82444 4.56863L2.0598 0.151503C1.98463 0.0935129 1.89867 0.050776 1.80683 0.0257344C1.71499 0.000692815 1.61907 -0.00616256 1.52456 0.00556003C1.43005 0.0172826 1.33879 0.0473534 1.25601 0.0940539C1.17322 0.140755 1.10053 0.203169 1.04209 0.277732L0.152605 1.4129C0.0346106 1.56338 -0.0182618 1.75416 0.00561606 1.94328C0.0294939 2.1324 0.128167 2.30438 0.279932 2.42138L26.9399 22.8485C27.0151 22.9065 27.101 22.9492 27.1929 22.9743C27.2847 22.9993 27.3806 23.0062 27.4752 22.9944C27.5697 22.9827 27.6609 22.9526 27.7437 22.9059C27.8265 22.8592 27.8992 22.7968 27.9576 22.7223L28.8476 21.5871C28.9655 21.4366 29.0183 21.2458 28.9943 21.0566C28.9704 20.8675 28.8716 20.6956 28.7198 20.5786ZM20.395 14.1998L18.6142 12.8351C18.7642 12.4054 18.8437 11.9546 18.8498 11.5C18.8587 10.8344 18.7099 10.176 18.4156 9.5777C18.1212 8.97941 17.6893 8.4579 17.1548 8.05507C16.6202 7.65224 15.9978 7.37932 15.3375 7.25822C14.6773 7.13712 13.9976 7.17123 13.353 7.3578C13.6262 7.72485 13.774 8.16884 13.7749 8.62503C13.7681 8.77683 13.7447 8.92746 13.7051 9.07424L10.3696 6.51866C11.5283 5.55879 12.9899 5.03242 14.4999 5.03132C15.3569 5.03084 16.2056 5.19784 16.9974 5.52275C17.7893 5.84767 18.5088 6.32413 19.1148 6.9249C19.7208 7.52566 20.2014 8.23895 20.5291 9.02398C20.8569 9.80901 21.0253 10.6504 21.0248 11.5C21.0248 12.4716 20.7851 13.3773 20.395 14.2002V14.1998Z" fill="#747474"/>
</svg>
